<?xml version="1.0" encoding="utf-8"?>
<!-- Generator: Adobe Illustrator 24.1.1, SVG Export Plug-In . SVG Version: 6.00 Build 0)  -->
<svg version="1.1" id="Слой_1" xmlns="http://www.w3.org/2000/svg" xmlns:xlink="http://www.w3.org/1999/xlink" x="0px" y="0px"
	 width="32.8px" height="31.8px" viewBox="0 0 32.8 31.8" style="enable-background:new 0 0 32.8 31.8;" xml:space="preserve">
<style type="text/css">
	
		.st0{fill-rule:evenodd;clip-rule:evenodd;fill:#FFFFFF;stroke:#FFFFFF;stroke-width:0.5;stroke-linecap:round;stroke-linejoin:round;}
	.st1{fill:#FFFFFF;stroke:#FFFFFF;stroke-width:0.25;}
</style>
<path class="st0" d="M3.1,0.6c0-0.2,0.2-0.4,0.4-0.4h28.7c0.2,0,0.4,0.2,0.4,0.4v27.6c0,0.2-0.2,0.4-0.4,0.4c-0.2,0-0.4-0.2-0.4-0.4
	V1H3.5C3.3,1,3.1,0.8,3.1,0.6z"/>
<path class="st1" d="M3.6,28.8h0.1v-0.1l0-23.8l1.6,1.6c0.2,0.2,0.5,0.2,0.7,0C6.2,6.4,6.2,6,6,5.8L3.5,3.3C3.3,3.1,3,3.1,2.8,3.3
	L0.3,5.8C0.1,6,0.1,6.4,0.3,6.6c0.2,0.2,0.5,0.2,0.7,0l1.6-1.6v23.8v0.1h0.1H3.6z"/>
<path class="st1" d="M2.6,29.1v0.1h0.1h23.9L25,30.8c-0.2,0.2-0.2,0.5,0,0.7c0.2,0.2,0.5,0.2,0.7,0l2.5-2.5c0.2-0.2,0.2-0.5,0-0.7
	l-2.5-2.5c-0.2-0.2-0.5-0.2-0.7,0c-0.2,0.2-0.2,0.5,0,0.7l1.6,1.6H2.8H2.6v0.1V29.1z"/>
<path class="st0" d="M14,0.4c0.2,0.2,0.2,0.4,0,0.6L9.3,5.7c-0.2,0.2-0.4,0.2-0.6,0c-0.2-0.2-0.2-0.4,0-0.6l4.7-4.7
	C13.6,0.2,13.9,0.2,14,0.4z"/>
<path class="st0" d="M32.3,19.2c0.2,0.2,0.2,0.4,0,0.6L28,24.1c-0.2,0.2-0.4,0.2-0.6,0c-0.2-0.2-0.2-0.4,0-0.6l4.3-4.3
	C31.9,19,32.2,19,32.3,19.2z"/>
<path class="st0" d="M20,0.4c0.2,0.2,0.2,0.4,0,0.6L9.7,11.3c-0.2,0.2-0.4,0.2-0.6,0c-0.2-0.2-0.2-0.4,0-0.6L19.4,0.4
	C19.6,0.2,19.8,0.2,20,0.4z"/>
<path class="st0" d="M32.5,12.6c0.2,0.2,0.2,0.4,0,0.6l-10,10c-0.2,0.2-0.4,0.2-0.6,0c-0.2-0.2-0.2-0.4,0-0.6l10-10
	C32.1,12.5,32.3,12.5,32.5,12.6z"/>
<path class="st0" d="M26.3,0.5c0.2,0.2,0.2,0.4,0,0.6L9.8,17.3c-0.2,0.2-0.4,0.2-0.6,0c-0.2-0.2-0.2-0.4,0-0.6L25.7,0.5
	C25.9,0.3,26.1,0.3,26.3,0.5z"/>
<path class="st0" d="M32.5,6.4c0.2,0.2,0.2,0.4,0,0.6L15.9,23.6c-0.2,0.2-0.4,0.2-0.6,0c-0.2-0.2-0.2-0.4,0-0.6L31.9,6.4
	C32.1,6.3,32.3,6.3,32.5,6.4z"/>
<path class="st0" d="M32.2,0.5c0.2,0.2,0.2,0.4,0,0.6L9.6,23.7c-0.2,0.2-0.4,0.2-0.6,0c-0.2-0.2-0.2-0.4,0-0.6L31.7,0.5
	C31.8,0.3,32.1,0.3,32.2,0.5z"/>
</svg>
