<?xml version="1.0" encoding="utf-8"?>
<!-- Generator: Adobe Illustrator 24.1.1, SVG Export Plug-In . SVG Version: 6.00 Build 0)  -->
<svg version="1.1" id="Слой_1" xmlns="http://www.w3.org/2000/svg" xmlns:xlink="http://www.w3.org/1999/xlink" x="0px" y="0px"
	 width="44px" height="39.7px" viewBox="0 0 44 39.7" style="enable-background:new 0 0 44 39.7;" xml:space="preserve">
<style type="text/css">
	.st0{fill:#FFFFFF;}
</style>
<path class="st0" d="M44,12c0-1.9-1.6-3.5-3.5-3.5h-4.3V6.3c0-0.4-0.3-0.6-0.6-0.6H34V2.1c0-0.4-0.3-0.6-0.6-0.6h-5.1V0.6
	c0-0.4-0.3-0.6-0.6-0.6H16.3c-0.4,0-0.6,0.3-0.6,0.6v0.8h-5.1c-0.4,0-0.6,0.3-0.6,0.6v3.6H8.5C8.1,5.7,7.8,6,7.8,6.3v2.2H3.5
	C1.6,8.5,0,10.1,0,12v8.5c0,0.4,0.3,0.6,0.6,0.6h0.8v15c0,1.9,1.6,3.5,3.5,3.5h34.2c1.9,0,3.5-1.6,3.5-3.5v-15h0.8
	c0.2,0,0.3-0.1,0.5-0.2c0.1-0.1,0.2-0.3,0.2-0.5V12z M34.9,7v1.6h-3V7H34.9z M16.9,1.3h10.1v1.6H16.9V1.3z M9.1,7h3v1.6h-3V7z
	 M41.3,36.2c0,1.2-1,2.2-2.2,2.2H4.9c-1.2,0-2.2-1-2.2-2.2v-15h4.4v1.6H6.3c-0.4,0-0.6,0.3-0.6,0.6v2.8c0,0.4,0.3,0.6,0.6,0.6h0.8
	v2.2c0,0.2,0.1,0.5,0.4,0.6l2.8,1.4c0.1,0,0.2,0.1,0.3,0.1c0.1,0,0.2,0,0.3-0.1l2.8-1.4c0.2-0.1,0.4-0.3,0.4-0.6v-2.2h0.8
	c0.4,0,0.6-0.3,0.6-0.6v-2.8c0-0.4-0.3-0.6-0.6-0.6h-0.8v-1.6h4.4v2.9c0,0.4,0.3,0.6,0.6,0.6h5.7c0.4,0,0.6-0.3,0.6-0.6v-2.9h4.4
	v1.6h-0.8c-0.4,0-0.6,0.3-0.6,0.6v2.8c0,0.4,0.3,0.6,0.6,0.6h0.8v2.2c0,0.2,0.1,0.5,0.4,0.6l2.8,1.4c0.1,0,0.2,0.1,0.3,0.1
	c0.1,0,0.2,0,0.3-0.1l2.8-1.4c0.2-0.1,0.4-0.3,0.4-0.6v-2.2h0.8c0.4,0,0.6-0.3,0.6-0.6v-2.8c0-0.4-0.3-0.6-0.6-0.6h-0.8v-1.6h4.4
	V36.2z M8.4,20.6C8.4,20.6,8.4,20.6,8.4,20.6C8.4,20.6,8.4,20.6,8.4,20.6v-2.2h4.4v4.4H8.4V20.6z M7,17.1v-1.6h7.3v1.6H7z
	 M14.2,24.1v1.6H7v-1.6H14.2z M12.8,26.9v1.8l-2.2,1.1l-2.2-1.1v-1.8H12.8z M21.4,21.2V22c0,0.4,0.3,0.6,0.6,0.6
	c0.4,0,0.6-0.3,0.6-0.6v-0.8h1.6v2.3h-4.4v-2.3H21.4z M19.8,19.9v-0.8h4.4v0.8H19.8z M31.2,20.6C31.2,20.6,31.2,20.6,31.2,20.6
	C31.2,20.6,31.2,20.6,31.2,20.6v-2.2h4.4v4.4h-4.4V20.6z M29.8,17.1v-1.6H37v1.6H29.8z M37,24.1v1.6h-7.3v-1.6H37z M35.6,26.9v1.8
	l-2.2,1.1l-2.2-1.1v-1.8H35.6z M41.9,19.9C41.9,19.9,41.9,19.9,41.9,19.9C41.9,19.9,41.9,19.9,41.9,19.9h-5.1v-1.6h0.8
	c0.4,0,0.6-0.3,0.6-0.6v-2.2h0.1c0.4,0,0.6-0.3,0.6-0.6c0-0.4-0.3-0.6-0.6-0.6h-10c-0.4,0-0.6,0.3-0.6,0.6c0,0.4,0.3,0.6,0.6,0.6
	h0.1v2.2c0,0.4,0.3,0.6,0.6,0.6h0.8v1.6h-4.4v-1.5c0-0.4-0.3-0.6-0.6-0.6h-5.7c-0.4,0-0.6,0.3-0.6,0.6v1.5h-4.4v-1.6h0.8
	c0.4,0,0.6-0.3,0.6-0.6v-2.2h0.1c0.4,0,0.6-0.3,0.6-0.6c0-0.4-0.3-0.6-0.6-0.6h-10c-0.4,0-0.6,0.3-0.6,0.6c0,0.4,0.3,0.6,0.6,0.6
	h0.1v2.2c0,0.4,0.3,0.6,0.6,0.6h0.8v1.6H1.3V12c0-1.2,1-2.2,2.2-2.2h12.1c0.4,0,0.6-0.3,0.6-0.6c0-0.4-0.3-0.6-0.6-0.6h-2.2V6.3
	c0-0.4-0.3-0.6-0.6-0.6h-1.5v-3h4.4v0.8c0,0.4,0.3,0.6,0.6,0.6h11.4c0.4,0,0.6-0.3,0.6-0.6V2.7h4.4v3h-1.5c-0.4,0-0.6,0.3-0.6,0.6
	v2.2H18.2c-0.4,0-0.6,0.3-0.6,0.6c0,0.4,0.3,0.6,0.6,0.6h22.3c1.2,0,2.2,1,2.2,2.2v7.9H41.9z"/>
<path class="st0" d="M4.3,36.2c0,0.4,0.3,0.6,0.6,0.6h34.2c0.4,0,0.6-0.3,0.6-0.6c0-0.4-0.3-0.6-0.6-0.6H4.9
	C4.6,35.6,4.3,35.9,4.3,36.2z"/>
</svg>
