<?xml version="1.0" encoding="utf-8"?>
<!-- Generator: Adobe Illustrator 24.1.1, SVG Export Plug-In . SVG Version: 6.00 Build 0)  -->
<svg version="1.1" id="Слой_1" xmlns="http://www.w3.org/2000/svg" xmlns:xlink="http://www.w3.org/1999/xlink" x="0px" y="0px"
	 width="41.2px" height="45px" viewBox="0 0 41.2 45" style="enable-background:new 0 0 41.2 45;" xml:space="preserve">
<style type="text/css">
	.st0{fill:#FFFFFF;stroke:#FFFFFF;stroke-width:1;}
	.st1{fill:#FFFFFF;filter:url(#Adobe_OpacityMaskFilter);}
	.st2{mask:url(#path-2-inside-1_1_);fill:#FFFFFF;stroke:#FFFFFF;stroke-width:2;}
</style>
<path class="st0" d="M27.8,2.9l-0.2,1c3,1.1,5.7,2.9,7.9,5.4c3.3,3.7,5.2,8.5,5.2,13.5c0,0.1-0.1,0.1-0.1,0.1
	c-0.1,0-0.1-0.1-0.1-0.1c0-9.9-7.2-18.2-16.9-19.6L22.9,3v0.6v1.3c0,0.1-0.1,0.1-0.1,0.1h-4.3c-0.1,0-0.1-0.1-0.1-0.1V3.6V3
	l-0.6,0.1C8,4.5,0.8,12.8,0.8,22.7c0,0.1-0.1,0.1-0.1,0.1c-0.1,0-0.1-0.1-0.1-0.1c0-5,1.8-9.8,5.2-13.5c2.2-2.4,4.9-4.2,7.9-5.4
	l-0.2-1H5.5H5.1L5,3.3C4.8,3.9,4.2,4.3,3.5,4.3c-0.9,0-1.6-0.7-1.6-1.6c0-0.9,0.7-1.6,1.6-1.6c0.7,0,1.3,0.5,1.5,1.1l0.1,0.3h0.4
	h12.3h0.5V2.1V0.6c0-0.1,0.1-0.1,0.1-0.1h4.3c0.1,0,0.1,0.1,0.1,0.1v1.5v0.5h0.5h12.3h0.4l0.1-0.3c0.2-0.6,0.8-1.1,1.5-1.1
	c0.9,0,1.6,0.7,1.6,1.6c0,0.9-0.7,1.6-1.6,1.6c-0.7,0-1.3-0.5-1.5-1.1l-0.1-0.3h-0.4H27.8z M18.6,4.3v0.5h0.5h3h0.5V4.3V2.9v0V2.8v0
	v0V1.3V0.8h-0.5h-3h-0.5v0.5v1.6v0V4.3z M38.9,2.8c0-0.7-0.6-1.3-1.3-1.3s-1.3,0.6-1.3,1.3c0,0.7,0.6,1.3,1.3,1.3
	C38.4,4.1,38.9,3.5,38.9,2.8z M2.2,2.8c0,0.7,0.6,1.3,1.3,1.3s1.3-0.6,1.3-1.3c0-0.7-0.6-1.3-1.3-1.3C2.8,1.5,2.2,2.1,2.2,2.8z"/>
<defs>
	<filter id="Adobe_OpacityMaskFilter" filterUnits="userSpaceOnUse" x="9" y="6.1" width="23.2" height="38.9">
		<feColorMatrix  type="matrix" values="1 0 0 0 0  0 1 0 0 0  0 0 1 0 0  0 0 0 1 0"/>
	</filter>
</defs>
<mask maskUnits="userSpaceOnUse" x="9" y="6.1" width="23.2" height="38.9" id="path-2-inside-1_1_">
	<path class="st1" d="M22.6,7.4c-0.1-0.2-0.3-0.3-0.6-0.3h-2.8c-0.2,0-0.4,0.1-0.6,0.3L10,22.8C10,22.8,10,23,10,23.1v0.7
		c0,0.1,0,0.2,0.1,0.3l3.6,5.8h-2.4c-0.4,0-0.6,0.3-0.6,0.6c0,0.4,0.3,0.6,0.6,0.6h0.1v2.2c0,0.4,0.3,0.6,0.6,0.6h0.8v2.2
		c0,0.4,0.3,0.6,0.6,0.6h0.8v2.2v0v0v4.3c0,0.4,0.3,0.6,0.6,0.6h11.4c0.4,0,0.6-0.3,0.6-0.6v-6.5h0.8c0.4,0,0.6-0.3,0.6-0.6V34h0.8
		c0.4,0,0.6-0.3,0.6-0.6v-2.2h0.1c0.4,0,0.6-0.3,0.6-0.6c0-0.4-0.3-0.6-0.6-0.6h-0.7c0,0,0,0,0,0s0,0,0,0h-1.7l3.6-5.8
		c0.1-0.1,0.1-0.2,0.1-0.3v-0.7c0-0.1,0-0.2-0.1-0.3L22.6,7.4z M20.6,21.2c0.4,0,0.8,0.3,0.8,0.8c0,0.4-0.3,0.8-0.8,0.8
		s-0.8-0.3-0.8-0.8C19.8,21.6,20.1,21.2,20.6,21.2z M27.1,35.6H20c-0.4,0-0.6,0.3-0.6,0.6c0,0.4,0.3,0.6,0.6,0.6h5.6v1.6h-0.8
		c-0.4,0-0.6,0.3-0.6,0.6c0,0.4,0.3,0.6,0.6,0.6h0.8v3H15.5v-3h0.8c0.4,0,0.6-0.3,0.6-0.6c0-0.4-0.3-0.6-0.6-0.6h-0.8v-1.6h1.7
		c0.4,0,0.6-0.3,0.6-0.6c0-0.4-0.3-0.6-0.6-0.6h-3.1V34h12.9V35.6z M28.5,32.7H12.7v-1.6h13.6h0h0h2.2V32.7z M29.9,23.6l-1.3,2H27
		c-0.4,0-0.6,0.3-0.6,0.6c0,0.4,0.3,0.6,0.6,0.6h0.8l-1.9,3h-4.7v-1.5c0-0.4-0.3-0.6-0.6-0.6c-0.4,0-0.6,0.3-0.6,0.6v1.5h-4.7
		l-1.9-3h0.8c0.4,0,0.6-0.3,0.6-0.6c0-0.4-0.3-0.6-0.6-0.6h-1.6l-1.3-2v-0.4l8.3-14.8h0.4V20c-0.8,0.3-1.4,1-1.4,2
		c0,1.1,0.9,2.1,2.1,2.1c1.1,0,2.1-0.9,2.1-2.1c0-0.9-0.6-1.7-1.4-2V8.4h0.4l8.3,14.8V23.6z"/>
</mask>
<path class="st2" d="M22.6,7.4c-0.1-0.2-0.3-0.3-0.6-0.3h-2.8c-0.2,0-0.4,0.1-0.6,0.3L10,22.8C10,22.8,10,23,10,23.1v0.7
	c0,0.1,0,0.2,0.1,0.3l3.6,5.8h-2.4c-0.4,0-0.6,0.3-0.6,0.6c0,0.4,0.3,0.6,0.6,0.6h0.1v2.2c0,0.4,0.3,0.6,0.6,0.6h0.8v2.2
	c0,0.4,0.3,0.6,0.6,0.6h0.8v2.2v0v0v4.3c0,0.4,0.3,0.6,0.6,0.6h11.4c0.4,0,0.6-0.3,0.6-0.6v-6.5h0.8c0.4,0,0.6-0.3,0.6-0.6V34h0.8
	c0.4,0,0.6-0.3,0.6-0.6v-2.2h0.1c0.4,0,0.6-0.3,0.6-0.6c0-0.4-0.3-0.6-0.6-0.6h-0.7c0,0,0,0,0,0s0,0,0,0h-1.7l3.6-5.8
	c0.1-0.1,0.1-0.2,0.1-0.3v-0.7c0-0.1,0-0.2-0.1-0.3L22.6,7.4z M20.6,21.2c0.4,0,0.8,0.3,0.8,0.8c0,0.4-0.3,0.8-0.8,0.8
	s-0.8-0.3-0.8-0.8C19.8,21.6,20.1,21.2,20.6,21.2z M27.1,35.6H20c-0.4,0-0.6,0.3-0.6,0.6c0,0.4,0.3,0.6,0.6,0.6h5.6v1.6h-0.8
	c-0.4,0-0.6,0.3-0.6,0.6c0,0.4,0.3,0.6,0.6,0.6h0.8v3H15.5v-3h0.8c0.4,0,0.6-0.3,0.6-0.6c0-0.4-0.3-0.6-0.6-0.6h-0.8v-1.6h1.7
	c0.4,0,0.6-0.3,0.6-0.6c0-0.4-0.3-0.6-0.6-0.6h-3.1V34h12.9V35.6z M28.5,32.7H12.7v-1.6h13.6h0h0h2.2V32.7z M29.9,23.6l-1.3,2H27
	c-0.4,0-0.6,0.3-0.6,0.6c0,0.4,0.3,0.6,0.6,0.6h0.8l-1.9,3h-4.7v-1.5c0-0.4-0.3-0.6-0.6-0.6c-0.4,0-0.6,0.3-0.6,0.6v1.5h-4.7l-1.9-3
	h0.8c0.4,0,0.6-0.3,0.6-0.6c0-0.4-0.3-0.6-0.6-0.6h-1.6l-1.3-2v-0.4l8.3-14.8h0.4V20c-0.8,0.3-1.4,1-1.4,2c0,1.1,0.9,2.1,2.1,2.1
	c1.1,0,2.1-0.9,2.1-2.1c0-0.9-0.6-1.7-1.4-2V8.4h0.4l8.3,14.8V23.6z"/>
</svg>
