<?xml version="1.0" encoding="utf-8"?>
<!-- Generator: Adobe Illustrator 24.1.1, SVG Export Plug-In . SVG Version: 6.00 Build 0)  -->
<svg version="1.1" id="Слой_1" xmlns="http://www.w3.org/2000/svg" xmlns:xlink="http://www.w3.org/1999/xlink" x="0px" y="0px"
	 width="32.8px" height="31.3px" viewBox="0 0 32.8 31.3" style="enable-background:new 0 0 32.8 31.3;" xml:space="preserve">
<style type="text/css">
	.st0{fill:#FFFFFF;}
</style>
<path class="st0" d="M24.2,2.2C24,0.9,22.8,0,21.5,0c-0.3,0-0.6,0.2-0.6,0.5c0,0.3,0.3,0.5,0.6,0.5c0.9,0,1.7,0.7,1.7,1.6
	s-0.8,1.6-1.7,1.6c-0.3,0-0.6,0.2-0.6,0.5c0,0.3,0.3,0.5,0.6,0.5c1.4,0,2.5-0.9,2.8-2.2h7.4v4.9H1.1V3.3H9h1.7
	c0.3,0,0.6-0.2,0.6-0.5s-0.3-0.5-0.6-0.5h-1c0.2-0.6,0.9-1.1,1.6-1.1c0.9,0,1.7,0.7,1.7,1.6s-0.8,1.6-1.7,1.6
	c-0.3,0-0.6,0.2-0.6,0.5c0,0.3,0.3,0.5,0.6,0.5c1.6,0,2.8-1.2,2.8-2.7S12.9,0,11.3,0C9.9,0,8.8,0.9,8.5,2.2H0v7.1v22h32.8v-22V2.2
	H24.2z M31.7,30.2H1.1V9.3h30.5V30.2z"/>
<path class="st0" d="M14.7,1.1c0.9,0,1.7,0.7,1.7,1.6s-0.8,1.6-1.7,1.6c-0.3,0-0.6,0.2-0.6,0.5c0,0.3,0.3,0.5,0.6,0.5
	c1.6,0,2.8-1.2,2.8-2.7S16.3,0,14.7,0c-0.3,0-0.6,0.2-0.6,0.5C14.1,0.9,14.4,1.1,14.7,1.1z"/>
<path class="st0" d="M18.1,1.1c0.9,0,1.7,0.7,1.7,1.6S19,4.4,18.1,4.4c-0.3,0-0.6,0.2-0.6,0.5c0,0.3,0.3,0.5,0.6,0.5
	c1.6,0,2.8-1.2,2.8-2.7S19.6,0,18.1,0c-0.3,0-0.6,0.2-0.6,0.5C17.5,0.9,17.8,1.1,18.1,1.1z"/>
<path class="st0" d="M5.1,13.7h12.4c0.3,0,0.6-0.2,0.6-0.5s-0.3-0.5-0.6-0.5H5.1c-0.3,0-0.6,0.2-0.6,0.5S4.8,13.7,5.1,13.7z"/>
<path class="st0" d="M27.7,21.4h-8.5c-0.3,0-0.6,0.2-0.6,0.5s0.3,0.5,0.6,0.5h8.5c0.3,0,0.6-0.2,0.6-0.5S28,21.4,27.7,21.4z"/>
<path class="st0" d="M5.1,18.1h5.7c0.3,0,0.6-0.2,0.6-0.5c0-0.3-0.3-0.5-0.6-0.5H5.1c-0.3,0-0.6,0.2-0.6,0.5
	C4.5,17.9,4.8,18.1,5.1,18.1z"/>
<path class="st0" d="M27.7,25.8H22c-0.3,0-0.6,0.2-0.6,0.5s0.3,0.5,0.6,0.5h5.7c0.3,0,0.6-0.2,0.6-0.5S28,25.8,27.7,25.8z"/>
<path class="st0" d="M15.8,17.6c0,0.3,0.3,0.5,0.6,0.5h8.5c0.3,0,0.6-0.2,0.6-0.5c0-0.3-0.3-0.5-0.6-0.5h-8.5
	C16.1,17,15.8,17.3,15.8,17.6z"/>
<path class="st0" d="M14,18c0.1-0.1,0.2-0.2,0.2-0.4c0-0.1-0.1-0.3-0.2-0.4c-0.2-0.2-0.6-0.2-0.8,0c-0.1,0.1-0.2,0.2-0.2,0.4
	c0,0.1,0.1,0.3,0.2,0.4c0.1,0.1,0.3,0.2,0.4,0.2C13.7,18.1,13.9,18.1,14,18z"/>
<path class="st0" d="M7.3,22c0,0.3,0.3,0.5,0.6,0.5h8.5c0.3,0,0.6-0.2,0.6-0.5s-0.3-0.5-0.6-0.5H7.9C7.6,21.4,7.3,21.7,7.3,22z"/>
<path class="st0" d="M5.1,22.5c0.1,0,0.3-0.1,0.4-0.2c0.1-0.1,0.2-0.2,0.2-0.4c0-0.1-0.1-0.3-0.2-0.4c-0.2-0.2-0.6-0.2-0.8,0
	c-0.1,0.1-0.2,0.2-0.2,0.4c0,0.1,0.1,0.3,0.2,0.4C4.8,22.5,4.9,22.5,5.1,22.5z"/>
<path class="st0" d="M27.7,18.1c0.1,0,0.3-0.1,0.4-0.2c0.1-0.1,0.2-0.2,0.2-0.4c0-0.1-0.1-0.3-0.2-0.4c-0.2-0.2-0.6-0.2-0.8,0
	c-0.1,0.1-0.2,0.2-0.2,0.4c0,0.1,0.1,0.3,0.2,0.4C27.4,18.1,27.5,18.1,27.7,18.1z"/>
<path class="st0" d="M19.2,25.8H5.1c-0.3,0-0.6,0.2-0.6,0.5s0.3,0.5,0.6,0.5h14.1c0.3,0,0.6-0.2,0.6-0.5S19.5,25.8,19.2,25.8z"/>
</svg>
