<?xml version="1.0" encoding="utf-8"?>
<!-- Generator: Adobe Illustrator 24.1.1, SVG Export Plug-In . SVG Version: 6.00 Build 0)  -->
<svg version="1.1" id="Слой_1" focusable="false"
	 xmlns="http://www.w3.org/2000/svg" xmlns:xlink="http://www.w3.org/1999/xlink" x="0px" y="0px" width="28px" height="28px"
	 viewBox="0 0 28 28" style="enable-background:new 0 0 28 28;" xml:space="preserve">
<style type="text/css">
	.st0{fill:#E3B873;}
	.st1{fill:none;stroke:#FFFFFF;stroke-miterlimit:10;}
</style>
<circle class="st0" cx="14" cy="14" r="14"/>
<path class="st1" d="M22.3,21.5h-2c-0.8,0-1-0.7-2.4-2.4c-1.2-1.4-1.7-1.6-2-1.6c-0.6,0-0.5,0.3-0.5,3c0,0.6-0.2,0.9-1.4,0.9
	c-2.1,0-4.5-1.6-6.2-4.4C5.2,12.8,4.6,9.6,4.6,9c0-0.4,0.1-0.7,0.7-0.7h2c0.5,0,0.7,0.3,0.9,0.9c1,3.5,2.7,6.5,3.3,6.5
	c0.3,0,0.4-0.1,0.4-0.9v-3.6c-0.1-1.6-0.8-1.8-0.8-2.4c0-0.3,0.2-0.6,0.5-0.6h3.2c0.4,0,0.6,0.3,0.6,0.9V14c0,0.5,0.2,0.7,0.3,0.7
	c0.3,0,0.5-0.2,0.9-0.7c1.5-2,2.5-5,2.5-5c0.1-0.4,0.4-0.7,0.9-0.7h2c0.6,0,0.7,0.4,0.6,0.9c-0.3,1.4-2.7,5.6-2.7,5.6
	c-0.2,0.4-0.3,0.6,0,1.1C20,16,22.6,19,23,20.4C23.1,21.1,22.8,21.5,22.3,21.5z"/>
</svg>
