<?xml version="1.0" encoding="utf-8"?>
<!-- Generator: Adobe Illustrator 24.1.1, SVG Export Plug-In . SVG Version: 6.00 Build 0)  -->
<svg version="1.1" id="Слой_1" xmlns="http://www.w3.org/2000/svg" xmlns:xlink="http://www.w3.org/1999/xlink" x="0px" y="0px"
	 width="44px" height="44px" viewBox="0 0 44 44" style="enable-background:new 0 0 44 44;" xml:space="preserve">
<style type="text/css">
	.st0{clip-path:url(#SVGID_2_);}
	.st1{fill:#FFFFFF;}
</style>
<g>
	<defs>
		<rect id="SVGID_1_" width="44" height="44"/>
	</defs>
	<clipPath id="SVGID_2_">
		<use xlink:href="#SVGID_1_"  style="overflow:visible;"/>
	</clipPath>
	<g class="st0">
		<path class="st1" d="M24.4,0c-9,0-16.3,7.3-16.3,16.3V19l-4.5,7.8c-0.1,0.1-0.1,0.2-0.1,0.3v2.7c0,0.4,0.3,0.6,0.6,0.6h4l0,4.3
			c0,1.9,1.6,3.5,3.5,3.5h1.3c0.4,0,0.6-0.3,0.6-0.6c0-0.4-0.3-0.6-0.6-0.6h-1.3c-1.2,0-2.2-1-2.2-2.2v-4.3h1.8
			c0.4,0,0.6-0.3,0.6-0.6v-4.3c0-0.4-0.3-0.6-0.6-0.6H9.8c-0.4,0-0.6,0.3-0.6,0.6c0,0.4,0.3,0.6,0.6,0.6h0.8v3H4.7v-1.6h2.2
			c0.4,0,0.6-0.3,0.6-0.6c0-0.4-0.3-0.6-0.6-0.6H5.3l4-6.8c0.1-0.1,0.1-0.2,0.1-0.3v-2.8c0-8.3,6.7-15,15-15c8.3,0,15,6.7,15,15V22
			c0,6.2-3.7,11.7-9.4,13.9h-1.7c-0.4,0-0.6,0.3-0.6,0.6c0,0.4,0.3,0.6,0.6,0.6h1.1v5.5H17.5v-4.4H19c0.4,0,0.6-0.3,0.6-0.6
			c0-0.4-0.3-0.6-0.6-0.6h-2.1h0h-1.4c-0.4,0-0.6,0.3-0.6,0.6c0,0.4,0.3,0.6,0.6,0.6h0.8v5.1c0,0.4,0.3,0.6,0.6,0.6h13.2
			c0.4,0,0.6-0.3,0.6-0.6V37c2.8-1.2,5.3-3.2,7.1-5.7c1.9-2.7,2.9-6,2.9-9.3v-5.7C40.7,7.3,33.4,0,24.4,0z"/>
		<path class="st1" d="M15.9,15.6c0,1.7,0.5,3.4,1.5,4.8c0.9,1.3,2.1,2.3,3.5,2.9v1.3h-0.1c-0.4,0-0.6,0.3-0.6,0.6
			c0,0.4,0.3,0.6,0.6,0.6h0.1v1.8c0,0.4,0.3,0.6,0.6,0.6h0.1v1.5c0,0.4,0.3,0.6,0.6,0.6h4.3c0.4,0,0.6-0.3,0.6-0.6v-1.5h0.1
			c0.4,0,0.6-0.3,0.6-0.6v-1.8h0.1c0.4,0,0.6-0.3,0.6-0.6c0-0.4-0.3-0.6-0.6-0.6h-0.1v-1.3c1.4-0.6,2.6-1.6,3.5-2.9
			c1-1.4,1.5-3.1,1.5-4.8c0-4.7-3.8-8.5-8.5-8.5C19.7,7.1,15.9,10.9,15.9,15.6z M22.9,17.7h0.5l1.2,1.2c0.1,0.1,0.3,0.2,0.5,0.2
			s0.3-0.1,0.5-0.2l0.3-0.3v3.7h-3V17.7z M25.9,29.2h-3v-0.8h3V29.2z M26.6,27.1h-4.4v-1.1h4.4V27.1z M22.2,24.6v-1.1h4.4v1.1H22.2z
			 M24.4,8.4c4,0,7.2,3.2,7.2,7.2c0,2.9-1.7,5.5-4.4,6.6V17c0,0,0,0,0,0v-0.7c0-0.4-0.3-0.6-0.6-0.6c-0.4,0-0.6,0.3-0.6,0.6v0.4
			l-0.8,0.8l-1-1c-0.1-0.1-0.3-0.2-0.5-0.2h-0.8v-0.1c0-0.4-0.3-0.6-0.6-0.6c-0.4,0-0.6,0.3-0.6,0.6v5.9c-2.7-1.1-4.4-3.7-4.4-6.6
			C17.2,11.6,20.4,8.4,24.4,8.4z"/>
		<path class="st1" d="M25,5.6V3.5c0-0.4-0.3-0.6-0.6-0.6c-0.4,0-0.6,0.3-0.6,0.6v2.1c0,0.4,0.3,0.6,0.6,0.6C24.7,6.3,25,6,25,5.6z"
			/>
		<path class="st1" d="M16.2,6.6c-0.3-0.3-0.7-0.3-0.9,0c-0.3,0.3-0.3,0.7,0,0.9L16.8,9c0.1,0.1,0.3,0.2,0.5,0.2
			c0.2,0,0.3-0.1,0.5-0.2c0.3-0.3,0.3-0.7,0-0.9L16.2,6.6z"/>
		<path class="st1" d="M14.3,15h-2.1c-0.4,0-0.6,0.3-0.6,0.6c0,0.4,0.3,0.6,0.6,0.6h2.1c0.4,0,0.6-0.3,0.6-0.6
			C14.9,15.3,14.7,15,14.3,15z"/>
		<path class="st1" d="M16.8,22.3l-1.5,1.5c-0.3,0.3-0.3,0.7,0,0.9c0.1,0.1,0.3,0.2,0.5,0.2c0.2,0,0.3-0.1,0.5-0.2l1.5-1.5
			c0.3-0.3,0.3-0.7,0-0.9C17.5,22.1,17,22.1,16.8,22.3z"/>
		<path class="st1" d="M31,22.3c-0.3,0.3-0.3,0.7,0,0.9l1.5,1.5c0.1,0.1,0.3,0.2,0.5,0.2c0.2,0,0.3-0.1,0.5-0.2
			c0.3-0.3,0.3-0.7,0-0.9l-1.5-1.5C31.7,22.1,31.3,22.1,31,22.3z"/>
		<path class="st1" d="M36.6,16.3c0.4,0,0.6-0.3,0.6-0.6c0-0.4-0.3-0.6-0.6-0.6h-2.1c-0.4,0-0.6,0.3-0.6,0.6c0,0.4,0.3,0.6,0.6,0.6
			H36.6z"/>
		<path class="st1" d="M32.5,6.6L31,8.1c-0.3,0.3-0.3,0.7,0,0.9c0.1,0.1,0.3,0.2,0.5,0.2c0.2,0,0.3-0.1,0.5-0.2l1.5-1.5
			c0.3-0.3,0.3-0.7,0-0.9C33.2,6.4,32.8,6.4,32.5,6.6z"/>
	</g>
</g>
</svg>
