<?xml version="1.0" encoding="utf-8"?>
<!-- Generator: Adobe Illustrator 24.1.1, SVG Export Plug-In . SVG Version: 6.00 Build 0)  -->
<svg version="1.1" id="Слой_1" xmlns="http://www.w3.org/2000/svg" xmlns:xlink="http://www.w3.org/1999/xlink" x="0px" y="0px"
	 width="28px" height="28px" viewBox="0 0 28 28" style="enable-background:new 0 0 28 28;" xml:space="preserve">
<style type="text/css">
	.st0{fill:#E3B873;}
	.st1{fill:none;stroke:#FFFFFF;stroke-width:1.5;}
	.st2{fill:none;stroke:#FFFFFF;stroke-width:1.5;stroke-linecap:round;stroke-linejoin:round;}
</style>
<circle class="st0" cx="14" cy="14" r="14"/>
<path class="st1" d="M17,8.4h-6c-1.7,0-3,1.3-3,3v6c0,1.7,1.3,3,3,3h6c1.7,0,3-1.3,3-3v-6C20,9.7,18.7,8.4,17,8.4z"/>
<path class="st2" d="M16.4,14c0.1,0.5,0,1-0.2,1.5c-0.2,0.4-0.6,0.8-1.1,1c-0.5,0.2-1,0.3-1.5,0.2s-1-0.3-1.3-0.7
	c-0.4-0.4-0.6-0.8-0.7-1.3s0-1,0.2-1.5c0.2-0.5,0.6-0.8,1-1.1s1-0.3,1.5-0.2c0.5,0.1,1,0.3,1.3,0.7C16.1,13,16.3,13.5,16.4,14z"/>
</svg>
